<mxfile host="Electron" modified="2024-04-16T19:50:02.696Z" agent="Mozilla/5.0 (Macintosh; Intel Mac OS X 10_15_7) AppleWebKit/537.36 (KHTML, like Gecko) draw.io/23.1.5 Chrome/120.0.6099.109 Electron/28.1.0 Safari/537.36" etag="VhIF4RXfgxu88Wmlg0a9" version="23.1.5" type="device">
  <diagram name="Page-1" id="eMinQwSlmTkk7AnLs67u">
    <mxGraphModel dx="1195" dy="756" grid="1" gridSize="10" guides="1" tooltips="1" connect="1" arrows="1" fold="1" page="1" pageScale="1" pageWidth="580" pageHeight="580" math="0" shadow="0">
      <root>
        <mxCell id="0" />
        <mxCell id="1" parent="0" />
        <mxCell id="zOXG5PFTGRpM_gQdPXxi-1" value="" style="rounded=1;whiteSpace=wrap;html=1;fillColor=#cce5ff;strokeWidth=4;strokeColor=none;" parent="1" vertex="1">
          <mxGeometry x="14" y="142" width="550" height="420" as="geometry" />
        </mxCell>
        <mxCell id="NzBTNHEMj_9acobscTZS-4" value="" style="shape=flexArrow;endArrow=classic;html=1;rounded=0;fillColor=#F0A30A;strokeColor=none;endWidth=62;endSize=9.48;width=188;entryX=0.5;entryY=0;entryDx=0;entryDy=0;labelBackgroundColor=none;fontColor=#FFFFFF;" parent="1" edge="1">
          <mxGeometry width="50" height="50" relative="1" as="geometry">
            <mxPoint x="289" y="160" as="sourcePoint" />
            <mxPoint x="289" y="270" as="targetPoint" />
          </mxGeometry>
        </mxCell>
        <mxCell id="NzBTNHEMj_9acobscTZS-8" value="" style="shape=flexArrow;endArrow=classic;startArrow=classic;html=1;rounded=0;fillColor=#F0A30A;strokeColor=none;" parent="1" edge="1">
          <mxGeometry width="100" height="100" relative="1" as="geometry">
            <mxPoint x="110" y="501" as="sourcePoint" />
            <mxPoint x="470" y="501" as="targetPoint" />
          </mxGeometry>
        </mxCell>
        <mxCell id="NzBTNHEMj_9acobscTZS-10" value="&lt;span style=&quot;font-family: Helvetica; font-style: normal; font-variant-ligatures: normal; font-variant-caps: normal; font-weight: 700; letter-spacing: normal; orphans: 2; text-indent: 0px; text-transform: none; widows: 2; word-spacing: 0px; -webkit-text-stroke-width: 0px; text-decoration-thickness: initial; text-decoration-style: initial; text-decoration-color: initial; float: none; font-size: 30px; display: inline !important;&quot;&gt;&lt;font style=&quot;font-size: 30px;&quot;&gt;DTensor&lt;/font&gt;&lt;/span&gt;" style="text;whiteSpace=wrap;html=1;align=center;verticalAlign=middle;fontColor=#333333;fontSize=30;" parent="1" vertex="1">
          <mxGeometry x="23" y="178" width="170" height="40" as="geometry" />
        </mxCell>
        <mxCell id="zOXG5PFTGRpM_gQdPXxi-2" value="&lt;font style=&quot;border-color: var(--border-color); font-weight: 700; font-size: 28px;&quot;&gt;Global Tensor&lt;/font&gt;&lt;br style=&quot;border-color: var(--border-color); font-weight: 700;&quot;&gt;&lt;i&gt;on&amp;nbsp;a&amp;nbsp;Single Device&lt;/i&gt;" style="rounded=1;whiteSpace=wrap;html=1;fontSize=24;fillColor=#B5739D;strokeColor=none;verticalAlign=middle;arcSize=0;fontColor=#FFFFFF;" parent="1" vertex="1">
          <mxGeometry x="109" y="16" width="360" height="110" as="geometry" />
        </mxCell>
        <mxCell id="zOXG5PFTGRpM_gQdPXxi-8" value="&lt;b style=&quot;border-color: var(--border-color); font-family: Helvetica; font-size: 28px; font-style: normal; font-variant-ligatures: normal; font-variant-caps: normal; letter-spacing: normal; orphans: 2; text-indent: 0px; text-transform: none; widows: 2; word-spacing: 0px; -webkit-text-stroke-width: 0px; text-decoration-thickness: initial; text-decoration-style: initial; text-decoration-color: initial;&quot;&gt;Placement&lt;/b&gt;&lt;span style=&quot;font-family: Helvetica; font-variant-ligatures: normal; font-variant-caps: normal; font-weight: 400; letter-spacing: normal; orphans: 2; text-indent: 0px; text-transform: none; widows: 2; word-spacing: 0px; -webkit-text-stroke-width: 0px; text-decoration-thickness: initial; text-decoration-style: initial; text-decoration-color: initial; float: none; font-size: 24px; display: inline !important;&quot;&gt;&lt;span style=&quot;font-style: normal; font-size: 28px;&quot;&gt;&amp;nbsp;&lt;br&gt;&lt;/span&gt;&lt;font style=&quot;font-size: 24px;&quot;&gt;&lt;i&gt;(e.g.&amp;nbsp;&lt;/i&gt;&lt;/font&gt;&lt;/span&gt;&lt;font style=&quot;font-size: 24px;&quot;&gt;&lt;i&gt;&lt;b style=&quot;border-color: var(--border-color); font-family: Helvetica; font-variant-ligatures: normal; font-variant-caps: normal; letter-spacing: normal; orphans: 2; text-indent: 0px; text-transform: none; widows: 2; word-spacing: 0px; -webkit-text-stroke-width: 0px; text-decoration-thickness: initial; text-decoration-style: initial; text-decoration-color: initial;&quot;&gt;Shard&lt;/b&gt;&lt;span style=&quot;font-family: Helvetica; font-variant-ligatures: normal; font-variant-caps: normal; font-weight: 400; letter-spacing: normal; orphans: 2; text-indent: 0px; text-transform: none; widows: 2; word-spacing: 0px; -webkit-text-stroke-width: 0px; text-decoration-thickness: initial; text-decoration-style: initial; text-decoration-color: initial; float: none; display: inline !important;&quot;&gt;)&lt;/span&gt;&lt;/i&gt;&lt;/font&gt;" style="text;whiteSpace=wrap;html=1;fillColor=none;align=center;fontColor=#FFFFFF;" parent="1" vertex="1">
          <mxGeometry x="209" y="170" width="160" height="70" as="geometry" />
        </mxCell>
        <mxCell id="zOXG5PFTGRpM_gQdPXxi-14" value="&lt;span style=&quot;font-size: 28px;&quot;&gt;&lt;b&gt;Local &lt;br&gt;Tensor&lt;/b&gt;&lt;/span&gt;" style="rounded=1;whiteSpace=wrap;html=1;fontSize=24;fillColor=#B5739D;strokeColor=none;verticalAlign=middle;arcSize=0;fontColor=#FFFFFF;" parent="1" vertex="1">
          <mxGeometry x="109" y="286" width="170" height="110" as="geometry" />
        </mxCell>
        <mxCell id="zOXG5PFTGRpM_gQdPXxi-15" value="&lt;span style=&quot;font-size: 28px;&quot;&gt;&lt;b&gt;Local &lt;br&gt;Tensor&lt;/b&gt;&lt;/span&gt;" style="rounded=1;whiteSpace=wrap;html=1;fontSize=24;fillColor=#B5739D;strokeColor=none;verticalAlign=middle;arcSize=0;fontColor=#FFFFFF;" parent="1" vertex="1">
          <mxGeometry x="299" y="286" width="170" height="110" as="geometry" />
        </mxCell>
        <mxCell id="WUUpmdlUtyZ6rqCQn2U4-2" style="edgeStyle=orthogonalEdgeStyle;rounded=0;orthogonalLoop=1;jettySize=auto;html=1;entryX=0;entryY=0.5;entryDx=0;entryDy=0;endArrow=none;endFill=0;strokeWidth=10;strokeColor=#F0A30A;" edge="1" parent="1" source="zOXG5PFTGRpM_gQdPXxi-16" target="zOXG5PFTGRpM_gQdPXxi-17">
          <mxGeometry relative="1" as="geometry" />
        </mxCell>
        <mxCell id="zOXG5PFTGRpM_gQdPXxi-16" value="&lt;b&gt;&lt;font style=&quot;font-size: 28px;&quot;&gt;Device&lt;/font&gt;&lt;/b&gt;" style="rounded=1;whiteSpace=wrap;html=1;fontSize=24;fillColor=#f0a30a;strokeColor=none;verticalAlign=middle;arcSize=0;fontColor=#FFFFFF;" parent="1" vertex="1">
          <mxGeometry x="109" y="411" width="170" height="70" as="geometry" />
        </mxCell>
        <mxCell id="zOXG5PFTGRpM_gQdPXxi-17" value="&lt;b&gt;&lt;font style=&quot;font-size: 28px;&quot;&gt;Mesh&lt;/font&gt;&lt;/b&gt;" style="rounded=1;whiteSpace=wrap;html=1;fontSize=24;fillColor=#f0a30a;strokeColor=none;verticalAlign=middle;arcSize=0;fontColor=#FFFFFF;" parent="1" vertex="1">
          <mxGeometry x="299" y="411" width="170" height="70" as="geometry" />
        </mxCell>
        <mxCell id="zOXG5PFTGRpM_gQdPXxi-20" value="&lt;span style=&quot;font-family: Helvetica; font-style: normal; font-variant-ligatures: normal; font-variant-caps: normal; font-weight: 400; letter-spacing: normal; orphans: 2; text-indent: 0px; text-transform: none; widows: 2; word-spacing: 0px; -webkit-text-stroke-width: 0px; text-decoration-thickness: initial; text-decoration-style: initial; text-decoration-color: initial; float: none; display: inline !important;&quot;&gt;&lt;font style=&quot;font-size: 28px;&quot;&gt;Auto Communication&lt;/font&gt;&lt;/span&gt;" style="text;whiteSpace=wrap;html=1;align=center;verticalAlign=middle;fontColor=#F0A30A;" parent="1" vertex="1">
          <mxGeometry x="140.75" y="502" width="298.5" height="50" as="geometry" />
        </mxCell>
      </root>
    </mxGraphModel>
  </diagram>
</mxfile>
